<?xml version="1.0" encoding="UTF-8" standalone="no"?>
<!DOCTYPE svg PUBLIC "-//W3C//DTD SVG 1.1//EN" "http://www.w3.org/Graphics/SVG/1.1/DTD/svg11.dtd">
<svg width="510pt" height="510pt" viewBox="0 0 510 510" overflow="visible" version="1.1" xmlns="http://www.w3.org/2000/svg">
  <path d="M156.6949,257.5228 L157.6221,268.9344 L160.4394,279.3475 L165.0397,288.9404 L170.3175,296.4293 L176.5226,303.0979 L183.5122,311.3713 L189.9669,317.5764 C191.8926,319.5021 193.533,321.5704 196.4929,323.3178 L207.6905,327.9182 L219.7797,332.1262 L234.5078,335.728 L248.5583,337.6893 L263.3221,337.6537 C268.279,337.1901 273.1289,336.1916 277.6579,334.8008 L290.7456,329.3802 L303.2984,322.2123 C307.0071,320.0013 309.9314,318.2896 312.392,315.9716 L319.3459,307.4843 L327.6193,296.5006 L335.1439,283.1989 C337.3192,278.8483 339.1023,274.9255 340.0651,270.8958 C341.028,266.8661 341.1706,262.7294 341.4916,257.8081 C341.8125,252.8869 342.3118,247.1811 341.6699,240.5837 C341.028,233.9864 339.2449,226.4975 337.2479,220.3638 C335.2509,214.2301 333.0399,209.4515 330.9002,205.1008 L324.1602,192.9403 L314.9953,181.2434 L303.1201,170.1171 L292.0651,162.9848 L281.7233,158.1349 C278.1215,156.8154 274.1988,155.8169 269.1705,155.389 L250.8763,155.389 C243.7441,155.6743 235.6133,156.1022 228.1244,157.3504 C220.6356,158.5985 213.7886,160.6669 208.5464,162.9492 C203.3042,165.2315 199.6667,167.7278 195.851,170.6163 L184.2611,180.1022 L173.9906,190.3727 C171.0664,193.9745 168.7841,197.8259 166.6444,203.2464 L161.1526,221.5406 L158.5137,236.34 L157.1942,247.3237 z" stroke="#000000" stroke-width="1" fill-opacity="0" />
  <path d="M154.5961,286.841 L151.0536,275.0377 L149.1409,260.8372 L149.1237,260.5885 L148.8358,247.7223 L148.8437,247.3647 L148.8513,247.0478 L149.6761,234.6906 L149.72,234.3001 L151.8035,221.7896 L151.8342,221.6541 L151.8866,221.4243 L155.3519,209.1422 L155.449,208.8374 L157.5594,202.117 L159.3374,196.2459 L159.3636,196.1716 C160.5082,192.9259 162.1546,189.6376 165.629,185.6055 L166.3312,184.8079 L166.3612,184.7745 L175.9577,175.6409 L189.8617,164.8473 C198.2999,158.8938 204.94,155.341 209.1199,153.249 C213.0751,151.2694 214.8276,150.5977 220.8766,149.5329 L221.2487,149.4679 L221.9505,149.3473 C228.8813,148.169 241.0231,146.4436 253.0473,146.1882 C265.0715,145.9327 276.978,147.1472 285.4057,149.8326 C293.8334,152.5181 298.7823,156.6746 305.2442,161.8528 C311.7061,167.0311 319.6808,173.231 326.3472,181.6121 C333.0135,189.9932 338.3714,200.5555 342.9137,211.6322 C347.456,222.709 351.1826,234.3001 351.4971,246.7674 C351.6912,254.4606 350.586,262.4874 348.6916,270.0503 L344.3748,283.4036 C340.5929,292.8387 335.8678,300.3612 331.7702,306.4175 L330.007,308.9974 L323.8926,317.3683 L323.0787,316.6837 L323.8037,317.477 L316.6313,324.6926 L314.0291,326.7164 L313.3051,325.9479 L313.8923,326.817 L302.4772,333.9596 L302.1253,333.4556 L302.4068,333.998 L294.5958,337.9536 L290.3121,339.8882 L290.1884,339.6498 L290.2798,339.902 L277.5684,344.3134 L265.8295,346.3106 C257.3839,347.0265 247.7713,346.3323 238.0754,344.8791 L237.7056,344.8233 L228.7944,343.2755 L225.2151,342.5521 L224.8436,342.4737 L212.381,339.4158 L212.1248,339.3427 L199.6759,335.0314 L199.6,334.9988 L195.7544,333.1892 C187.6909,329.0015 183.8235,324.0549 178.4333,318.2988 C173.0431,312.5427 166.1303,305.977 161.0984,298.8096 C158.4344,295.015 156.2976,291.0518 154.5961,286.841 z M153.8025,257.8654 L154.7586,269.6334 L157.6638,280.3716 L162.4077,290.2639 L167.8504,297.9866 L174.2492,304.8635 L181.457,313.3952 L188.1132,319.794 C190.0991,321.7799 191.7907,323.9128 194.843,325.7148 C197.8953,327.5167 202.3083,328.9877 206.3903,330.4587 L218.8569,334.7981 L234.0448,338.5124 L248.5341,340.535 L263.7588,340.4982 C268.8705,340.0201 273.8718,338.9904 278.5422,337.5562 L292.0385,331.9665 L304.9832,324.5747 C308.8078,322.2947 311.8233,320.5295 314.3607,318.1392 L321.5318,309.3868 L330.0635,298.0602 L337.823,284.3432 C340.0663,279.8567 341.905,275.8115 342.8979,271.656 C343.8908,267.5004 344.0379,263.2346 344.3689,258.1597 C344.6999,253.0847 345.2147,247.2008 344.5528,240.3975 C343.8908,233.5942 342.0521,225.8715 339.9927,219.5462 C337.9333,213.221 335.6533,208.2932 333.4468,203.8067 L326.4964,191.2665 L317.0453,179.2044 L304.7993,167.7307 L293.3992,160.3758 L282.7345,155.3744 C279.0203,154.0137 274.9751,152.9841 269.7898,152.5428 L250.9244,152.5428 C243.5695,152.8369 235.1848,153.2782 227.4622,154.5654 C219.7395,155.8525 212.6787,157.9854 207.2729,160.339 C201.867,162.6926 198.116,165.2668 194.1811,168.2455 L182.2293,178.0276 L171.6382,188.6187 C168.6227,192.333 166.2691,196.3046 164.0626,201.8944 C161.8561,207.4841 159.7967,214.692 158.3993,220.7598 L155.678,236.0213 L154.3173,247.3479 z" stroke="#000000" stroke-width="0" fill="#000000" fill-opacity="1.0" />
  <path d="M348.6916,270.0503 L344.3748,283.4036 C340.5929,292.8387 335.8678,300.3612 331.7702,306.4175 L330.007,308.9974 L323.8926,317.3683 L323.0787,316.6837 L323.8037,317.477 L316.6313,324.6926 L314.0291,326.7164 L313.3051,325.9479 L313.8923,326.817 L302.4772,333.9596 L302.1253,333.4556 L302.4068,333.998 L294.5958,337.9536 L290.3121,339.8882 L290.1884,339.6498 L290.2798,339.902 L277.5684,344.3134 L265.8295,346.3106 C257.3839,347.0265 247.7713,346.3323 238.0754,344.8791 L237.7056,344.8233 L228.7944,343.2755 L225.2151,342.5521 L224.8436,342.4737 L212.381,339.4158 L212.1248,339.3427 L199.6759,335.0314 L199.6,334.9988 L195.7544,333.1892 C187.6909,329.0015 183.8235,324.0549 178.4333,318.2988 C173.0431,312.5427 166.1303,305.977 161.0984,298.8096 C158.4344,295.015 156.2976,291.0518 154.5961,286.841 L151.0536,275.0377 L149.1409,260.8372 L149.1237,260.5885 L148.8358,247.7223 L148.8437,247.3647 L148.8513,247.0478 L149.6761,234.6906 L149.72,234.3001 L151.8035,221.7896 L151.8342,221.6541 L151.8866,221.4243 L155.3519,209.1422 L155.449,208.8374 L157.5594,202.117 L159.3374,196.2459 L159.3636,196.1716 C160.5082,192.9259 162.1546,189.6376 165.629,185.6055 L166.3312,184.8079 L166.3612,184.7745 L175.9577,175.6409 L189.8617,164.8473 C198.2999,158.8938 204.94,155.341 209.1199,153.249 C213.0751,151.2694 214.8276,150.5977 220.8766,149.5329 L221.2487,149.4679 L221.9505,149.3473 C228.8813,148.169 241.0231,146.4436 253.0473,146.1882 C265.0715,145.9327 276.978,147.1472 285.4057,149.8326 C293.8334,152.5181 298.7823,156.6746 305.2442,161.8528 C311.7061,167.0311 319.6808,173.231 326.3472,181.6121 C333.0135,189.9932 338.3714,200.5555 342.9137,211.6322 C347.456,222.709 351.1826,234.3001 351.4971,246.7674 C351.6912,254.4606 350.586,262.4874 348.6916,270.0503 z M150.4801,258.259 L151.4695,270.4362 L154.4758,281.5478 L159.3847,291.7842 L165.0166,299.7755 L171.6379,306.8915 L179.0964,315.7199 L185.9841,322.3412 C188.039,324.3961 189.7895,326.6032 192.9479,328.4679 C196.1064,330.3325 200.6728,331.8546 204.8968,333.3768 L217.7969,337.8671 L233.513,341.7105 L248.5062,343.8034 L264.2603,343.7654 C269.5498,343.2707 274.7251,342.2052 279.5579,340.7211 L293.5235,334.937 L306.9184,327.2882 C310.876,324.9289 313.9964,323.1023 316.6221,320.6288 L324.0425,311.5721 L332.8709,299.8516 L340.9002,285.6576 C343.2215,281.015 345.1242,276.8292 346.1516,272.5291 C347.1791,268.229 347.3313,263.8148 347.6738,258.5634 C348.0163,253.312 348.549,247.2235 347.864,240.1835 C347.1791,233.1436 345.2764,225.1524 343.1454,218.6072 C341.0144,212.062 338.6551,206.9628 336.3719,202.3202 L329.1797,189.344 L319.4,176.8624 L306.7281,164.9897 L294.9315,157.379 L283.896,152.2037 C280.0526,150.7957 275.8667,149.7302 270.5011,149.2736 L250.9796,149.2736 C243.3689,149.578 234.6927,150.0346 226.7015,151.3665 C218.7102,152.6984 211.4039,154.9055 205.81,157.3409 C200.2162,159.7763 196.3347,162.4401 192.263,165.5224 L179.8956,175.6447 C175.8619,179.1837 172.0565,182.7607 168.9361,186.6041 C165.8157,190.4475 163.3803,194.5573 161.0971,200.3415 C158.8139,206.1256 156.6829,213.5841 155.2368,219.8629 L152.4209,235.6552 L151.0129,247.3757 z" stroke="#000000" stroke-width="0" fill="#000000" fill-opacity="1.0" />
  <path d="M154.6002,286.8509 L154.7456,286.7754 L154.5921,286.8311 z" stroke="#000000" stroke-width="1" fill-opacity="0" />
  <path d="M277.563,344.3148 L265.8295,346.3106 C257.3839,347.0265 247.7713,346.3323 238.0754,344.8791 L237.7056,344.8233 L228.7944,343.2755 L225.2151,342.5521 L224.8436,342.4737 L212.381,339.4158 L212.1248,339.3427 L199.6759,335.0314 L199.6,334.9988 L195.7544,333.1892 C187.6909,329.0015 183.8235,324.0549 178.4333,318.2988 C173.0431,312.5427 166.1303,305.977 161.0984,298.8096 C158.4344,295.015 156.2976,291.0518 154.6002,286.8509 L19.34888,357.0341 L25.54309,368.9711 L160.9398,298.7124 L61.03863,368.4699 L68.73793,379.4962 L168.6391,309.7387 L105.9444,367.0376 L115.017,376.9646 L177.7118,319.6658 L129.9262,376.4637 L140.217,385.1216 L188.0026,328.3237 L134.663,411.8094 L145.9959,419.05 L199.3354,335.5643 L136.4363,469.9936 L148.6172,475.693 L211.5164,341.2637 L184.2175,427.4522 L197.0382,431.513 L224.337,345.3245 L206.0878,448.0371 L219.3288,450.3896 L237.5781,347.6771 L230.7196,500.1939 L244.1544,500.7981 L251.0129,348.2812 L258.4486,434.5685 L271.8473,433.4139 L264.4116,347.1266 L292.9148,476.4949 L306.0482,473.6013 L277.563,344.3148 L277.545,344.2329 L277.563,344.3148 z" stroke="#000000" stroke-width="1" fill-opacity="0" />
  <path d="M290.2798,339.902 L277.5737,344.3121 L317.616,454.7756 L330.2593,450.1924 L290.2798,339.902 L290.1884,339.6498 L290.2798,339.902 z" stroke="#000000" stroke-width="1" fill-opacity="0" />
  <path d="M302.4068,333.998 L294.5958,337.9536 L290.3121,339.8882 L364.688,483.2195 L376.625,477.0252 L302.4068,333.998 L302.1253,333.4556 L302.4068,333.998 z" stroke="#000000" stroke-width="1" fill-opacity="0" />
  <path d="M313.8923,326.817 L302.4772,333.9596 L348.9569,400.5241 L359.9832,392.8248 L313.8923,326.817 L313.3051,325.9479 L313.8923,326.817 L314.0291,326.7164" stroke="#000000" stroke-width="1" fill-opacity="0" />
  <path d="M323.8037,317.477 L316.6313,324.6926 L314.0291,326.7164 L401.3917,422.3061 L411.3188,413.2334 L323.8037,317.477 L323.0787,316.6837 L323.8037,317.477 L323.8926,317.3683" stroke="#000000" stroke-width="1" fill-opacity="0" />
  <path d="M331.7686,306.4198 L330.007,308.9974 L323.8926,317.3683 L395.5952,377.6936 L404.2531,367.4029 L331.7686,306.4198 L331.7366,306.3929 L331.7686,306.4198 z" stroke="#000000" stroke-width="1" fill-opacity="0" />
  <path d="M348.6931,270.0444 L344.3748,283.4036 C340.5929,292.8387 335.8678,300.3612 331.7717,306.4153 L403.4235,352.1941 L410.6641,340.8612 L338.9772,295.0601 L449.3396,346.6983 L455.039,334.5173 L344.6767,282.8791 L481.13,326.0985 L485.1908,313.2778 z" stroke="#000000" stroke-width="1" fill-opacity="0" />
  <path d="M154.5921,286.8311 L151.0536,275.0377 L149.1409,260.8372 L149.1237,260.5885 L148.8358,247.7223 L148.8437,247.3647 L148.8513,247.0478 L149.6761,234.6906 L149.72,234.3001 L151.8035,221.7896 L151.8342,221.6541 L151.8866,221.4243 L155.3519,209.1422 L155.449,208.8374 L157.5594,202.117 L159.3374,196.2459 L159.3636,196.1716 C160.5082,192.9259 162.1546,189.6376 165.629,185.6055 L166.3312,184.8079 L166.3612,184.7745 L175.9577,175.6409 L189.8617,164.8473 C198.2999,158.8938 204.94,155.341 209.1199,153.249 C213.0751,151.2694 214.8276,150.5977 220.8766,149.5329 L221.2487,149.4679 L221.9505,149.3473 C228.8813,148.169 241.0231,146.4436 253.0473,146.1882 C265.0715,145.9327 276.978,147.1472 285.4057,149.8326 C293.8334,152.5181 298.7823,156.6746 305.2442,161.8528 C311.7061,167.0311 319.6808,173.231 326.3472,181.6121 C333.0135,189.9932 338.3714,200.5555 342.9137,211.6322 C347.456,222.709 351.1826,234.3001 351.4971,246.7674 C351.6912,254.4606 350.586,262.4874 348.6916,270.0503 L436.8782,285.7186 L439.2308,272.4776 L352.0244,256.8594 L472.8126,262.291 L473.4167,248.8562 L353.3624,243.2388 L447.0337,235.1668 L445.8791,221.768 L351.0011,229.8821 L421.4682,214.3564 L418.5745,201.223 L347.6459,216.8504 L487.9446,165.9931 L483.3615,153.3498 L343.0627,204.2071 L446.4143,150.577 L440.2201,138.64 L336.8686,192.2701 L410.3159,140.9844 L402.6167,129.958 L329.1693,181.2438 L407.6832,109.4872 L398.6105,99.5602 L320.0966,171.3167 L374.1779,107.0357 L363.8871,98.37781 L309.8058,162.6588 L382.4267,48.99442 L371.0939,41.75381 L298.4427,155.483 L350.1112,45.05586 L337.9303,39.35642 L286.2946,149.7344 L311.9201,68.8052 L299.0994,64.74445 L273.505,145.4686 L291.499,44.19254 L278.258,41.83997 L260.2534,142.7925 L266.3912,6.301676 L252.9563,5.697533 L246.7955,142.7013 L241.1123,76.75091 L227.7136,77.90553 L233.3968,143.8559 L212.7169,49.99545 L199.5835,52.88908 L220.2634,146.7496 L171.7599,12.94427 L159.1165,17.52739 L207.62,151.3327 L173.0617,84.73472 L161.1247,90.92892 L195.683,157.5269 L132.953,67.68982 L121.9267,75.38912 L184.6567,165.2262 L128.7934,104.1021 L118.8663,113.1748 L174.7296,174.2988 L71.02547,87.04984 L62.36757,97.34062 L166.0717,184.5896 L77.68567,128.1192 L70.44505,139.452 L158.8311,195.9225 L87.67502,162.6287 L81.97558,174.8096 L153.1317,208.1034 L61.47772,179.0735 L57.41697,191.8941 L149.071,220.9241 L23.87195,198.6796 L21.51938,211.9207 L146.7184,234.1651 L76.00285,230.9852 L75.39871,244.42 L146.1142,247.5999 L17.39026,258.6926 L18.54488,272.0913 L147.2689,260.9987 L50.82301,282.2482 L53.71664,295.3816 L150.1625,274.1321 L69.40153,303.4074 L73.98465,316.0507 z" stroke="#000000" stroke-width="1" fill-opacity="0" />
  <path d="M154.5921,286.8311 L73.98465,316.0507 L69.40153,303.4074 L150.1625,274.1321 L53.71664,295.3816 L50.82301,282.2482 L147.2689,260.9987 L18.54488,272.0913 L17.39026,258.6926 L146.1142,247.5999 L75.39871,244.42 L76.00285,230.9852 L146.7184,234.1651 L21.51938,211.9207 L23.87195,198.6796 L149.071,220.9241 L57.41697,191.8941 L61.47772,179.0735 L153.1317,208.1034 L81.97558,174.8096 L87.67502,162.6287 L158.8311,195.9225 L70.44505,139.452 L77.68567,128.1192 L166.0717,184.5896 L62.36757,97.34062 L71.02547,87.04984 L174.7296,174.2988 L118.8663,113.1748 L128.7934,104.1021 L184.6567,165.2262 L121.9267,75.38912 L132.953,67.68982 L195.683,157.5269 L161.1247,90.92892 L173.0617,84.73472 L207.62,151.3327 L159.1165,17.52739 L171.7599,12.94427 L220.2634,146.7496 L199.5835,52.88908 L212.7169,49.99545 L233.3968,143.8559 L227.7136,77.90553 L241.1123,76.75091 L246.7955,142.7013 L252.9563,5.697533 L266.3912,6.301676 L260.2534,142.7925 L278.258,41.83997 L291.499,44.19254 L273.505,145.4686 L299.0994,64.74445 L311.9201,68.8052 L286.2946,149.7344 L337.9303,39.35642 L350.1112,45.05586 L298.4427,155.483 L371.0939,41.75381 L382.4267,48.99442 L309.8058,162.6588 L363.8871,98.37781 L374.1779,107.0357 L320.0966,171.3167 L398.6105,99.5602 L407.6832,109.4872 L329.1693,181.2438 L402.6167,129.958 L410.3159,140.9844 L336.8686,192.2701 L440.2201,138.64 L446.4143,150.577 L343.0627,204.2071 L483.3615,153.3498 L487.9446,165.9931 L347.6459,216.8504 L418.5745,201.223 L421.4682,214.3564 L351.0011,229.8821 L445.8791,221.768 L447.0337,235.1668 L353.3624,243.2388 L473.4167,248.8562 L472.8126,262.291 L352.0244,256.8594 L439.2308,272.4776 L436.8782,285.7186 L348.6916,270.0503 C350.586,262.4874 351.6912,254.4606 351.4971,246.7674 C351.1826,234.3001 347.456,222.709 342.9137,211.6322 C338.3714,200.5555 333.0135,189.9932 326.3472,181.6121 C319.6808,173.231 311.7061,167.0311 305.2442,161.8528 C298.7823,156.6746 293.8334,152.5181 285.4057,149.8326 C276.978,147.1472 265.0715,145.9327 253.0473,146.1882 C241.0231,146.4436 228.8813,148.169 221.9505,149.3473 L221.2487,149.4679 L220.8766,149.5329 C214.8276,150.5977 213.0751,151.2694 209.1199,153.249 C204.94,155.341 198.2999,158.8938 189.8617,164.8473 L175.9577,175.6409 L166.3612,184.7745 L166.3312,184.8079 L165.629,185.6055 C162.1546,189.6376 160.5082,192.9259 159.3636,196.1716 L159.3374,196.2459 L157.5594,202.117 L155.449,208.8374 L155.3519,209.1422 L151.8866,221.4243 L151.8342,221.6541 L151.8035,221.7896 L149.72,234.3001 L149.6761,234.6906 L148.8513,247.0478 L148.8437,247.3647 L148.8358,247.7223 L149.1237,260.5885 L149.1409,260.8372 L151.0536,275.0377 z" stroke="#000000" stroke-width="0" fill="#000000" fill-opacity="1.0" />
  <path d="M348.6931,270.0444 L485.1908,313.2778 L481.13,326.0985 L344.6767,282.8791 L455.039,334.5173 L449.3396,346.6983 L338.9772,295.0601 L410.6641,340.8612 L403.4235,352.1941 L331.7717,306.4153 C335.8678,300.3612 340.5929,292.8387 344.3748,283.4036 z" stroke="#000000" stroke-width="0" fill="#000000" fill-opacity="1.0" />
  <path d="M331.7717,306.4153 L331.7686,306.4198 L331.7366,306.3929 z" stroke="#000000" stroke-width="0" fill="#000000" fill-opacity="1.0" />
  <path d="M331.7686,306.4198 L404.2531,367.4029 L395.5952,377.6936 L323.8926,317.3683 L330.007,308.9974 z" stroke="#000000" stroke-width="0" fill="#000000" fill-opacity="1.0" />
  <path d="M323.8926,317.3683 L323.8037,317.477 L323.0787,316.6837 z" stroke="#000000" stroke-width="0" fill="#000000" fill-opacity="1.0" />
  <path d="M323.8037,317.477 L411.3188,413.2334 L401.3917,422.3061 L314.0291,326.7164 L316.6313,324.6926 z" stroke="#000000" stroke-width="0" fill="#000000" fill-opacity="1.0" />
  <path d="M314.0291,326.7164 L313.8923,326.817 L313.3051,325.9479 z" stroke="#000000" stroke-width="0" fill="#000000" fill-opacity="1.0" />
  <path d="M313.8923,326.817 L359.9832,392.8248 L348.9569,400.5241 L302.4772,333.9596 z" stroke="#000000" stroke-width="0" fill="#000000" fill-opacity="1.0" />
  <path d="M302.4772,333.9596 L302.4068,333.998 L302.1253,333.4556 z" stroke="#000000" stroke-width="0" fill="#000000" fill-opacity="1.0" />
  <path d="M302.4068,333.998 L376.625,477.0252 L364.688,483.2195 L290.3121,339.8882 L294.5958,337.9536 z" stroke="#000000" stroke-width="0" fill="#000000" fill-opacity="1.0" />
  <path d="M290.3121,339.8882 L290.2798,339.902 L290.1884,339.6498 z" stroke="#000000" stroke-width="0" fill="#000000" fill-opacity="1.0" />
  <path d="M290.2798,339.902 L330.2593,450.1924 L317.616,454.7756 L277.5737,344.3121 z" stroke="#000000" stroke-width="0" fill="#000000" fill-opacity="1.0" />
  <path d="M277.5737,344.3121 L277.563,344.3148 L277.545,344.2329 z" stroke="#000000" stroke-width="0" fill="#000000" fill-opacity="1.0" />
  <path d="M277.563,344.3148 L306.0482,473.6013 L292.9148,476.4949 L264.4116,347.1266 L271.8473,433.4139 L258.4486,434.5685 L251.0129,348.2812 L244.1544,500.7981 L230.7196,500.1939 L237.5781,347.6771 L219.3288,450.3896 L206.0878,448.0371 L224.337,345.3245 L197.0382,431.513 L184.2175,427.4522 L211.5164,341.2637 L148.6172,475.693 L136.4363,469.9936 L199.3354,335.5643 L145.9959,419.05 L134.663,411.8094 L188.0026,328.3237 L140.217,385.1216 L129.9262,376.4637 L177.7118,319.6658 L115.017,376.9646 L105.9444,367.0376 L168.6391,309.7387 L68.73793,379.4962 L61.03863,368.4699 L160.9398,298.7124 L25.54309,368.9711 L19.34888,357.0341 L154.6002,286.8509 C156.2976,291.0518 158.4344,295.015 161.0984,298.8096 C166.1303,305.977 173.0431,312.5427 178.4333,318.2988 C183.8235,324.0549 187.6909,329.0015 195.7544,333.1892 L199.6,334.9988 L199.6759,335.0314 L212.1248,339.3427 L212.381,339.4158 L224.8436,342.4737 L225.2151,342.5521 L228.7944,343.2755 L237.7056,344.8233 L238.0754,344.8791 C247.7713,346.3323 257.3839,347.0265 265.8295,346.3106 z" stroke="#000000" stroke-width="0" fill="#000000" fill-opacity="1.0" />
  <path d="M154.6002,286.8509 L154.5921,286.8311 L154.7456,286.7754 z" stroke="#000000" stroke-width="0" fill="#000000" fill-opacity="1.0" />
  <path d="M348.6916,270.0503 L344.3748,283.4036 C340.5929,292.8387 335.8678,300.3612 331.7702,306.4175 L330.007,308.9974 L323.8926,317.3683 L323.0787,316.6837 L323.8037,317.477 L316.6313,324.6926 L314.0291,326.7164 L313.3051,325.9479 L313.8923,326.817 L302.4772,333.9596 L302.1253,333.4556 L302.4068,333.998 L294.5958,337.9536 L290.3121,339.8882 L290.1884,339.6498 L290.2798,339.902 L277.5684,344.3134 L265.8295,346.3106 C257.3839,347.0265 247.7713,346.3323 238.0754,344.8791 L237.7056,344.8233 L228.7944,343.2755 L225.2151,342.5521 L224.8436,342.4737 L212.381,339.4158 L212.1248,339.3427 L199.6759,335.0314 L199.6,334.9988 L195.7544,333.1892 C187.6909,329.0015 183.8235,324.0549 178.4333,318.2988 C173.0431,312.5427 166.1303,305.977 161.0984,298.8096 C158.4344,295.015 156.2976,291.0518 154.5961,286.841 L151.0536,275.0377 L149.1409,260.8372 L149.1237,260.5885 L148.8358,247.7223 L148.8437,247.3647 L148.8513,247.0478 L149.6761,234.6906 L149.72,234.3001 L151.8035,221.7896 L151.8342,221.6541 L151.8866,221.4243 L155.3519,209.1422 L155.449,208.8374 L157.5594,202.117 L159.3374,196.2459 L159.3636,196.1716 C160.5082,192.9259 162.1546,189.6376 165.629,185.6055 L166.3312,184.8079 L166.3612,184.7745 L175.9577,175.6409 L189.8617,164.8473 C198.2999,158.8938 204.94,155.341 209.1199,153.249 C213.0751,151.2694 214.8276,150.5977 220.8766,149.5329 L221.2487,149.4679 L221.9505,149.3473 C228.8813,148.169 241.0231,146.4436 253.0473,146.1882 C265.0715,145.9327 276.978,147.1472 285.4057,149.8326 C293.8334,152.5181 298.7823,156.6746 305.2442,161.8528 C311.7061,167.0311 319.6808,173.231 326.3472,181.6121 C333.0135,189.9932 338.3714,200.5555 342.9137,211.6322 C347.456,222.709 351.1826,234.3001 351.4971,246.7674 C351.6912,254.4606 350.586,262.4874 348.6916,270.0503 z M156.6949,257.5228 L157.6221,268.9344 L160.4394,279.3475 L165.0397,288.9404 L170.3175,296.4293 L176.5226,303.0979 L183.5122,311.3713 L189.9669,317.5764 C191.8926,319.5021 193.533,321.5704 196.4929,323.3178 L207.6905,327.9182 L219.7797,332.1262 L234.5078,335.728 L248.5583,337.6893 L263.3221,337.6537 C268.279,337.1901 273.1289,336.1916 277.6579,334.8008 L290.7456,329.3802 L303.2984,322.2123 C307.0071,320.0013 309.9314,318.2896 312.392,315.9716 L319.3459,307.4843 L327.6193,296.5006 L335.1439,283.1989 C337.3192,278.8483 339.1023,274.9255 340.0651,270.8958 C341.028,266.8661 341.1706,262.7294 341.4916,257.8081 C341.8125,252.8869 342.3118,247.1811 341.6699,240.5837 C341.028,233.9864 339.2449,226.4975 337.2479,220.3638 C335.2509,214.2301 333.0399,209.4515 330.9002,205.1008 L324.1602,192.9403 L314.9953,181.2434 L303.1201,170.1171 L292.0651,162.9848 L281.7233,158.1349 C278.1215,156.8154 274.1988,155.8169 269.1705,155.389 L250.8763,155.389 C243.7441,155.6743 235.6133,156.1022 228.1244,157.3504 C220.6356,158.5985 213.7886,160.6669 208.5464,162.9492 C203.3042,165.2315 199.6667,167.7278 195.851,170.6163 L184.2611,180.1022 L173.9906,190.3727 C171.0664,193.9745 168.7841,197.8259 166.6444,203.2464 L161.1526,221.5406 L158.5137,236.34 L157.1942,247.3237 z" stroke="#000000" stroke-width="0" fill="#000000" fill-opacity="1.0" />
</svg>